<?xml version="1.0" encoding="UTF-8"?><svg id="a" xmlns="http://www.w3.org/2000/svg" viewBox="0 0 795.07 292.06"><defs><style>.b{fill:#fdffe6;}</style></defs><path class="b" d="M404.5,232.35c12.35-1.85,27.12-6.19,33.89-17.72,3.92-6.68,4.81-15.5,.78-22.38-2.97-5.07-8.36-8.36-14.17-9.08-7.04-.86-14.39,1.93-19.47,6.79-5.82,5.57-10.46,14.67-11.61,22.49-1.18,8.03,.83,18.9,5.21,25.93s11.85,10.74,20.08,10.48c9.14-.29,19.55-2.72,27.36-11.33,1.71-1.89,9.16-9.87,8.61-12.36-.69-3.15-8.54,3.69-12.05,6.41-6.46,5-7.02,4.54-14.89,6.52-3.56,.9-8.58,.48-12.05-.13-3-.53-6.04-1.99-8.49-4.23-1.94-1.77-3.49-4.68-4.28-7.41-.86-2.96-1.15-6.74-1.01-9.79,.16-3.39,.75-7.22,1.58-10.19,.44-1.59,.94-3.18,1.58-4.7,.69-1.66,1.15-2.45,2.18-3.87,1-1.37,1.67-2.11,2.74-3.05,.57-.5,1.16-.98,1.77-1.42,.75-.55,1.09-.76,1.57-1.02,1.3-.71,2.64-1.29,4.04-1.75,.39-.13-.02,0-.09,.02,.21-.06,.43-.11,.65-.17,.32-.08,.65-.15,.97-.21,.75-.14,1.52-.24,2.28-.29,.2-.01,.97-.03,.38-.03,.38,0,.76,.01,1.14,.04,.7,.05,1.4,.13,2.09,.26,.21,.04,.42,.09,.63,.13-.06-.01-.46-.13-.08-.02,.31,.09,.62,.19,.93,.29,.72,.25,1.42,.56,2.1,.91,.35,.18,.02,0-.04-.03,.14,.08,.29,.17,.43,.26,.33,.21,.66,.43,.98,.66,.28,.2,.55,.42,.81,.64,.13,.11,.26,.23,.39,.34,.43,.38-.28-.3,.13,.12s.82,.9,1.18,1.4c.04,.06,.45,.68,.45,.68-.09,.05-.48-.87-.14-.22,.08,.15,.16,.29,.24,.44,.31,.6,.58,1.22,.81,1.85,.11,.29,.2,.59,.3,.89,.25,.71-.16-.74-.06-.2,.04,.19,.09,.37,.14,.55,.17,.74,.29,1.48,.38,2.23,.04,.35,.06,.69,.08,1.04,0,.13,.04,.92,.02,.24s0,.09,0,.25c-.03,.83-.09,1.65-.21,2.47-.06,.37-.12,.75-.2,1.12-.05,.22-.11,.44-.15,.66,.11-.59,.14-.48,0-.02-.27,.87-.58,1.72-.95,2.55-.17,.38-.38,.75-.56,1.13-.25,.54,.36-.57-.04,.08-.14,.22-.26,.44-.4,.66-.56,.87-1.18,1.7-1.85,2.49-.16,.18-.31,.36-.48,.54-.08,.09-.61,.65-.28,.31s-.31,.3-.41,.39c-.22,.21-.44,.41-.66,.61-.92,.82-1.89,1.58-2.89,2.28-.48,.33-.97,.65-1.47,.97,.56-.36-.23,.14-.41,.24-.32,.18-.64,.36-.96,.53-1.33,.71-2.7,1.35-4.09,1.92-3.3,1.36-6.1,2.17-9.48,2.9-1.96,.43-3.94,.78-5.92,1.07-4.38,.65-3.39,7.47,1,6.81h0Z"/><path class="b" d="M40.19,100.68c-6.13,14.22-15.69,29.58-21.84,43.79-4.71,10.88-9.99,21.77-14.8,32.6-1.17,2.62-4.78,9.45-3.12,12.09,1.49,2.36,18.03,6.92,34.04,3.79,6.95-1.36,11.49-2.2,18.04-4.97,12.16-5.14,22.74-17.48,30.62-27.94,7.48-9.93,13.04-21.26,17.19-32.95,3.34-9.41,5.85-19.27,6.72-29.24,.48-5.47-.07-10.91-.95-16.32-1.31-8.05-3.9-15.9-7.85-23.05-6.22-11.28-11.55-13.65-21.07-22.06-1.98-1.75-10.97-6.25-13.53-5.61-1.46,.37-3.54,1.95-.24,3.41,10.48,4.66,16.43,10.44,23.55,19.54-.37-.47,.25,.33,.35,.46,.23,.3,.45,.61,.68,.92,.52,.71,1.02,1.43,1.51,2.17,.94,1.41,1.83,2.86,2.66,4.34,1.81,3.24,3.05,6.02,4.21,9.31,2.45,6.99,3.92,14.52,4.03,21.92,.02,1.63-.06,3.26-.2,4.88-.08,.92-.18,1.83-.29,2.74-.03,.23-.06,.46-.09,.7,.13-1.13,.02-.14-.02,.1-.08,.52-.16,1.05-.24,1.57-.76,4.74-1.85,9.42-3.17,14.03-.75,2.64-1.58,5.25-2.49,7.83-.46,1.3-.93,2.6-1.43,3.89-.26,.68-.53,1.35-.8,2.03-.13,.32-.26,.63-.39,.95-.06,.14-.11,.27-.17,.41,0,0-.34,.82-.17,.4,.14-.33-.23,.53-.29,.68-.14,.32-.28,.63-.42,.95-.32,.73-.65,1.45-.98,2.17-.61,1.32-1.25,2.63-1.91,3.93-1.38,2.72-2.86,5.4-4.45,8.01-1.6,2.63-3.31,5.2-5.14,7.68-.21,.29-.43,.58-.65,.87-.11,.15-.7,.9-.31,.4-.47,.61-.96,1.21-1.45,1.81-.98,1.19-1.99,2.36-3.03,3.49-2.04,2.23-4.21,4.35-6.5,6.32-.58,.5-1.17,.99-1.77,1.47-.28,.22-.56,.45-.84,.67,.51-.4-.37,.28-.53,.39-1.23,.92-2.5,1.79-3.8,2.62-2.62,1.67-5.36,3.1-8.19,4.37-.53,.24,.27-.1-.48,.2-.34,.14-.68,.27-1.02,.41-.74,.28-1.48,.55-2.23,.81-1.52,.51-3.05,.96-4.61,1.34s-3.2,.71-4.82,.97c-.17,.03-1.2,.18-.57,.09-.39,.05-.78,.1-1.17,.14-.91,.1-1.82,.17-2.73,.24-5.04,.39-10.33,1.22-15.3-.08-.65-.17-1.83-.4-1.69-.94,.27-1.09,.59-2.87,1.05-3.9,1.02-2.3,2.04-4.59,3.05-6.89,2.45-5.56,4.87-11.13,7.29-16.71,5.87-13.53,11.71-27.08,17.55-40.62,6.11-14.19,12.23-28.37,18.38-42.54,5.11-11.77,10.23-23.54,15.47-35.25,.96-2.15,1.93-4.3,2.91-6.44,.77-1.69,2.98-9.2-1.23-7-1.52,.79-34.12,64.27-40.31,78.62Z"/><path class="b" d="M103.34,151.55c-.99,3.12-4.16,12-4.94,15.18-.91,3.7-1.72,11.05-1.43,14.88,.26,3.41,1.31,6.81,4.26,8.83,2.55,1.74,6.65,1.88,9.33,.34,2.11-1.22,4.26-5.12,8.04-13.62,1.27-2.85,4.88-20.21,6.61-25.24,1.26-3.66,2.98-7.2,4.84-10.59,1.7-3.08,3.87-6.44,5.84-8.85s4.31-4.87,6.81-6.94c.28-.24,.57-.47,.86-.7,.5-.4-.22,.16,.29-.22,.61-.45,1.23-.89,1.86-1.31,1.17-.77,2.38-1.49,3.62-2.13,.53-.28,1.08-.54,1.62-.79,.29-.13,.58-.26,.87-.39-.68,.29,.16-.06,.42-.16,1.13-.43,2.28-.81,3.45-1.12s2.24-.53,3.38-.72c.16-.03,.32-.05,.48-.07,0,0-.72,.09-.32,.04,.27-.03,.55-.06,.82-.09,.58-.06,1.16-.1,1.74-.12,1.04-.04,2.09-.03,3.13,.04,.47,.03,.93,.09,1.4,.13,.61,.05-.76-.13,.03,0,.27,.05,.55,.09,.82,.14,.96,.18,1.91,.4,2.84,.69,.4,.12,.8,.26,1.19,.4,.21,.08,.41,.17,.62,.24,.45,.15-.73-.34,.03,.02s1.49,.73,2.21,1.16c3.8,2.31,4.97-.2,1.18-2.5-7.38-4.48-14.65-5.83-22.73-3.31-12.2,3.81-21.55,11.11-27.79,21.98-3.26,5.68-5.81,11.7-7.52,18.02-.76,2.83-1.51,5.66-2.34,8.46-.42,1.43-.87,2.85-1.35,4.26-.22,.66-.46,1.31-.7,1.96-.13,.34-.26,.67-.39,1.01-.06,.14-.11,.28-.17,.42-.24,.61,.11-.23-.06,.13-.49,1.09-1,2.18-1.63,3.2-.14,.23-.3,.45-.44,.68-.39,.64,.32-.29-.05,.07-.14,.14-.26,.29-.4,.43-.46,.49-.47,.18,.02,.04-.17,.05-.31,.24-.48,.29-.15,.05,.82-.14,.26-.13-.18,0-1.13,.16-.47,.11-.4,.03-.78,.02-1.18,.02,.56,0,.23,.04-.14-.04-.16-.04-.32-.1-.48-.15,.03,0,.58,.29,.27,.1-.12-.07-.71-.5-.34-.19,.5,.42-.58-.74-.21-.24,.27,.37-.18-.36-.27-.5-.32-.48,.08,.42-.07-.17-.08-.33-.2-.64-.28-.97-.03-.15-.06-.3-.09-.44-.23-.93,.02,.38-.04-.19-.18-1.64-.11-3.32,.09-4.96,.34-2.86,1.33-6.41,2.17-9.46,4.31-15.55,11.24-30.08,20.54-43.31,1.43-2.03,2.9-4.03,4.44-5.98,1.15-1.46,1.96-5.33,0-4.87-6.82,1.6-24.65,30.02-30.09,47.2Z"/><path class="b" d="M459.45,194.82c-.62,14.13,1.58,28.92,4.79,42.76,2.3,9.9,4.19,19.52,8.75,28.82,1.34,2.73,7.43,10.76,10.2,12.49,3,1.88,7.61,3.31,10.62,.79,2.53-2.12,2.3-12.2,2.38-15.09,.12-4.14-.36-8.31-.8-12.42-1.09-10.09-2.66-20.29-1.97-30.45,.08-1.16,.21-2.31,.35-3.47,.07-.54-.11,.61,.04-.26,.04-.24,.08-.49,.13-.73,.1-.54,.22-1.09,.35-1.63,.24-.99,.53-1.97,.89-2.93,.15-.41,.36-.81,.5-1.22-.32,.87-.06,.12,.05-.09s.23-.42,.35-.63c.22-.38,.46-.75,.71-1.12,.12-.17,.24-.33,.36-.49,.07-.09,.15-.18,.21-.27,.33-.48-.4,.38-.15,.17,.73-.6,1.32-1.33,2.09-1.92,.16-.12,.34-.23,.49-.36,.29-.26-.64,.36-.28,.2,.1-.05,.18-.12,.28-.18,.36-.21,.72-.42,1.1-.6,.16-.07,.33-.13,.48-.21,.44-.23-.89,.24-.14,.06,.36-.09,.72-.18,1.08-.27,.63-.17-.42,.02-.31,.02,.15,.01,.31-.03,.47-.03,.35,0,.71,.04,1.06,.03,.38-.02-.95-.2-.26-.02,.15,.04,.31,.06,.46,.1,.26,.06,1.29,.41,.69,.18s.39,.18,.61,.3c.35,.18,.68,.38,1.01,.58,.56,.33-.19-.16-.13-.1,.12,.12,.3,.22,.44,.32,.34,.26,.67,.53,.99,.81,.67,.59,1.22,1.28,1.87,1.88-.05-.05-.4-.48,.05,.07,.14,.17,.28,.34,.41,.51,.32,.4,.63,.81,.93,1.22,1.29,1.77,2.41,3.64,3.44,5.54,.55,1.01,1.07,2.04,1.57,3.07,.07,.14,.14,.28,.2,.43-.04-.09-.28-.61-.04-.09,.12,.25,.24,.51,.35,.76,.27,.59,.53,1.19,.79,1.79,1.05,2.42,1.94,4.89,2.89,7.34,8.79,22.82,11.63,39.11,11.83,40.97,.88,8.39,5.79,8.24,5.95,4.3,.13-3.27-.38-5.59-.8-8.83-.64-4.84-1.5-9.65-2.54-14.43-2.25-10.38-4.02-16.66-8.26-26.55-1.88-4.38-7.41-18.98-10.2-22.97-2.15-3.08-4.83-6.23-8.43-8.06-8.36-4.23-15.3,3.09-18.33,9.92-1.86,4.18-2.37,13.94-2.57,18.4-.22,5.11,.12,10.24,.59,15.33,.47,5.04,1.1,10.07,1.62,15.1,.41,3.96,.85,7.98,.59,11.95-.19,3.04-2.12,2.15-2.47,1.93-.18-.11-.35-.23-.53-.34-.64-.39,.44,.43-.08-.05-.13-.12-.28-.25-.42-.37-.7-.59,.39,.56,0,.02-.74-1.04-1.41-2.1-1.99-3.23-.09-.18-.19-.37-.28-.55-.06-.12-.36-.74-.11-.22s-.05-.11-.11-.24c-.11-.24-.22-.48-.32-.72-.4-.91-.78-1.82-1.14-2.74-1.83-4.65-4.46-9.4-5.79-14.18-3.6-12.92-6.08-21.93-7.54-34.87-1.57-13.93-1.03-32.26,1.06-46.18-.08,.52,.11-.65,.12-.75,.06-.36,.12-.72,.18-1.08,.13-.76,.28-1.52,.43-2.28,.3-1.48,.65-2.95,1.03-4.41,.42-1.61,1.73-4.47-.1-4.92-1.74-.43-10.32,11.1-11.78,44.37Z"/><path class="b" d="M567.55,151.89c-13.9-.49-24.31,10.3-30.78,21.46-3.53,6.09-6.39,12.83-7.41,19.83-1.04,7.08-.96,17.77,2.52,24.06,2.88,5.2,8.34,11.58,14.29,12.97,4.12,.96,8.77,.77,12.31-1.74,6.8-4.81,9.89-19.63,11.7-27.38,3.55-15.22,3.01-31.17,.93-46.55l-6.29,2.65c5.49,9.17,8.44,18.55,12.51,28.54,3.98,9.76,8.36,20.01,15.91,27.6,3.94,3.95,8.83,6.95,14.31,8.17,1.81,.4,3.72-.55,4.23-2.4,.47-1.73-10.63-1.6-21.19-21.03-5.13-9.44-8.4-18.89-12.51-28.94-2.15-5.26-4.4-10.52-7.33-15.41-.87-1.46-2.74-2.1-4.3-1.41-1.71,.75-2.23,2.3-1.99,4.06,.93,6.9,1.41,13.88,1.38,20.84-.02,5.75-.42,11.75-1.31,17.04-.76,4.51-1.85,9-3.52,13.27-.09,.22-.18,.45-.27,.67-.21,.53,.34-.74-.04,.09-.19,.42-.37,.83-.57,1.24-.4,.85-.84,1.68-1.31,2.5-.37,.64-.77,1.28-1.2,1.89-.1,.15-.79,1.06-.45,.63,.32-.4-.39,.46-.53,.62-.43,.49-.88,.95-1.37,1.38-.31,.28-1.02,.6-.14,.15-.3,.15-.57,.4-.85,.58-.23,.14-.48,.26-.72,.4-.73,.43,.76-.21-.05,.03-.24,.07-.48,.16-.73,.23-.16,.04-.96,.17-.56,.12,.65-.08-.68,.04-.64,.04-.33,.02-.66,.03-.99,.03-.57,0-1.15-.02-1.72-.09,.62,.07-.55-.11-.54-.1-.23-.05-.47-.1-.7-.16-.34-.09-.68-.19-1.02-.31,0,0-.99-.4-.48-.17-.53-.24-1.04-.52-1.54-.82-.25-.15-.49-.32-.73-.48-.1-.07-.69-.51-.29-.2-1.04-.82-1.97-1.8-2.8-2.83-3.05-3.8-5.04-9.25-5.01-14.43,.04-5.92,1.94-15.28,4.53-20.63,3.04-6.28,6.94-8.99,12.31-13.54,2.12-1.79,5.02-3.52,7.32-4.35,2.87-1.04,4.68-1.33,7.61-1.23,4.43,.16,4.43-6.73,0-6.88h0Z"/><path class="b" d="M654.05,190.9c10.83,1.39,22.76-.26,32.43-5.42,6.09-3.25,11.27-8.26,14.41-14.43,1.86-3.66,3.1-7.61,3.71-11.67,.66-4.39,1.33-9.45-.35-13.69-3.11-7.84-11.79-11.17-19.73-11.1-9.19,.08-17.54,5.47-23.71,11.96-6,6.31-11.16,13.38-14.14,27.57-1.44,6.88,.77,16.83,4.52,23.04,4.22,6.98,11.43,12.13,19.12,14.64,9.46,3.1,27.23-.3,33.07-12.17,1.38-2.8,7.37-11.21,4.93-11.77-4.82-1.12-7.5,14.13-23.54,16.57-17.38,2.64-23.78-10.8-23.93-11.02-1.4-2.07-.41-2.21-1.55-3.53-.25-.29-.7-.96-.94-1.26,.45,.57-.2-.28-.31-.44-.44-.63-.86-1.28-1.23-1.94-.17-.3-.33-.6-.48-.91-.05-.11-.49-1.08-.29-.61s-.18-.49-.21-.6c-.11-.33-.21-.66-.3-.99-.07-.29-.14-.57-.19-.87-.04-.23-.17-1.23-.06-.32-.09-.76-.16-1.52-.2-2.28-.08-1.58-.05-3.17,.07-4.76,.03-.4,.07-.8,.11-1.21,.02-.2,.05-.41,.07-.61-.08,.67-.02,.13,0,0,.15-.94,.31-1.87,.51-2.8,.39-1.78,.89-3.53,1.5-5.24,.15-.43,.31-.85,.48-1.28,.05-.13,.45-1.11,.24-.61,.41-.97,.87-1.91,1.35-2.85,.92-1.76,1.96-3.46,3.11-5.08,2.07-2.9,5.39-6.27,8.45-8.47,1.84-1.32,3.79-2.5,5.81-3.52,.42-.21,.84-.42,1.27-.61-.75,.34,.22-.07,.44-.15,.81-.28,1.63-.5,2.47-.67,.39-.08,.77-.14,1.16-.2-.76,.12,.37-.03,.58-.05,.86-.07,1.73-.1,2.6-.08,.41,0,.82,.03,1.24,.06,.21,.01,.41,.03,.62,.05,.1,0,.75,.08,.31,.03s.21,.03,.31,.05c.2,.03,.41,.07,.61,.11,.45,.09,.91,.18,1.35,.3,.79,.2,1.55,.46,2.32,.73,.12,.04,.61,.25,.01,0,.18,.08,.36,.16,.54,.25,.4,.19,.79,.4,1.18,.62,.34,.2,.66,.41,.99,.62,.68,.44-.16-.2,.45,.33s1.18,1.09,1.68,1.73c-.45-.58,.16,.28,.28,.47,.2,.33,.37,.67,.55,1.01,.29,.57,.04,.11,0-.02,.07,.19,.13,.37,.2,.56,.16,.49,.26,.98,.37,1.48,.03,.13,.06,.66,0,.03,.02,.22,.04,.43,.05,.65,.02,.49,.02,.99,.01,1.49-.02,1.11-.07,2.22-.15,3.33-.16,1.94-.33,3.17-.82,5.31-.4,1.74-.93,3.45-1.59,5.12-.03,.09-.29,.69-.12,.3s-.09,.2-.13,.29c-.17,.36-.34,.73-.52,1.09-.37,.74-.78,1.47-1.21,2.18-.4,.65-.82,1.28-1.26,1.9-.11,.15-.22,.3-.33,.45,.41-.56,.12-.15,.03-.04-.29,.35-.58,.71-.88,1.06-.95,1.08-1.98,2.1-3.07,3.03-.27,.23-.55,.45-.82,.68-.48,.4-.02,.02,.07-.05-.14,.1-.28,.21-.42,.32-.64,.46-1.29,.91-1.96,1.33-1.21,.76-2.47,1.44-3.76,2.05-.31,.15-.63,.29-.94,.43-.79,.36,.44-.17-.36,.15-.67,.27-1.39,.44-2.04,.76-12.4,6.17-27.44,4.07-27.44,5.76,0,2.06,1.59,3.2,3.44,3.44h0Z"/><path class="b" d="M789.71,187.44c-3.36,3.28-15.57,9.55-22.82,9.49-4.93-.04-11.03-1.26-15.39-3.76-9.67-5.55-15.45-20.05-19.54-30.27-5.12-12.79-9.43-25.97-13.54-39.12-4.31-13.78-8.2-27.69-11.68-41.7-3.87-15.61-3.21-9.95-7.73-25.38-1.61-5.5-2.56-9.75-4.23-9.29-1.93,.53-1.58,6.99-1.26,8.82,5.22,29.33,8.8,45.71,17.61,74.17,4.29,13.86,8.8,24.3,14.2,37.77,4.62,11.54,13.33,26.88,23.96,32.61,13.79,7.43,36.94,4.8,45.29-14.22,1.78-4.06-1.69-2.23-4.87,.87h0Z"/><path class="b" d="M666.57,124.61c.5,.63,1.36,.81,2.08,.45,19.06-9.77,60.72-31.54,66.27-33.47,1.76-.61,12.51-4.3,11.99-6.18-.47-1.7-1.54-1.56-13.55,2.3-20.32,6.52-32.17,12.34-51.46,21.47-5.4,2.56-5.6,1.86-10.91,4.58-1.65,.85-4.26,3.23-4.89,4.9-.87,2.33-.14,5.16,.48,5.94Z"/><path class="b" d="M193.84,135.33c-2.05-1-4.19-1.77-6.4-2.32-8.64-2.01-17.76-.1-25.56,3.9-4.2,2.15-8.09,5.04-11.38,8.42-3.81,3.92-6.77,8.63-9.38,13.4-6.54,11.95-11.48,30.65-2.74,42.78,2.05,2.85,4.28,5,7.15,7.01,3.01,2.11,6.78,4.74,10.39,5.54,4.73,1.05,9.66-.41,14.3-1.77,7.57-2.22,14.82-6.9,20.17-12.7,3.4-3.69,7.34-10.29,9.76-14.68,2.74-4.97,4.03-10.23,5.86-15.61,4.21-12.39,.13-27.98-12.17-33.98Zm6.61,20.32c.03,.18,.06,.48,0,0h0Zm-51.89,43.75,51.97-37.36c-.03,.31-.08,.62-.1,.93,0,.05-.01,.1-.02,.14-.09,.58-.2,1.16-.32,1.73-.75,3.46-2.24,6.77-3.7,9.97-2.17,4.75-4.58,6.84-7.6,11.11-1.88,2.67-4.14,5.29-6.62,7.41-.32,.27-.64,.54-.97,.81-.13,.1-.25,.2-.38,.31-.05,.04-.08,.06-.1,.08-.73,.56-1.48,1.1-2.25,1.61-1.59,1.07-3.24,2.05-4.96,2.91-1.74,.87-3.26,1.48-5.31,2.07-2.03,.58-3.64,.87-5.51,.95-4.24,.17-8.12,1.4-11.8-1.03-.5-.33-4.25-3.29-5.19-4.33-.28-.3-.54-.62-.8-.93-.03-.04-.11-.13-.17-.22-.09-.13-.2-.28-.24-.33-.56-.8-1.08-1.63-1.54-2.5-.24-.45-.44-.91-.67-1.37v-.02s-.04-.07-.06-.13c-.1-.27-.21-.54-.3-.82-.41-1.17-.72-2.37-.93-3.59-.01-.08-.05-.29-.08-.46-.02-.19-.08-.67-.09-.75-.07-.71-.1-1.43-.12-2.14-.01-.71,0-1.43,.04-2.14,.02-.4,.05-.8,.09-1.19,.01-.13,.07-.61,.08-.79,.52-3.75,1.65-7.44,3.11-10.93,3.39-8.11,8.56-16.79,15.65-22.03,3.28-2.42,6.83-4.32,10.45-5.53,3.87-1.3,6.94-1.85,10.85-1.76,.81,.02,1.62,.08,2.43,.16,.13,.02,.81,.12,.9,.14,.44,.08,.87,.17,1.3,.27,2.03,.5,3.68,1.06,5.23,1.86,.7,.36,1.39,.76,2.05,1.2,.32,.21,.64,.44,.95,.67,.04,.04,.67,.57,.76,.65,.57,.51,1.1,1.05,1.61,1.63,.09,.1,.39,.46,.49,.58,.07,.09,.15,.2,.17,.23,.14,.2,.28,.4,.42,.6,.4,.6,.76,1.22,1.1,1.86,.15,.29,.3,.59,.44,.89,.04,.08,.08,.17,.12,.26,.04,.09,.12,.28,.14,.35,.49,1.35,.9,2.71,1.17,4.12,.07,.36,.12,.71,.19,1.07v.04c.02,.13,.04,.25,.05,.38,.06,.7,.12,1.4,.15,2.11,.05,1.3,0,2.61-.11,3.91Z"/><path class="b" d="M177.37,159.14c-11.33,14.02-50.86,45.94-50.98,46.11-3.74,4.93,2.46,2.99,4.23,2.4,5.27-1.73,9.87-5.75,14.06-9.22,6.32-5.23,13.43-9.74,19.27-15.5,12.5-12.33,23.45-26.36,34.5-40.02,2.23-2.76,4.44-5.56,6.47-8.47,1.31-1.88,4.74-6.38,3.44-8.29-1.13-1.66-3.99,3.09-7.07,6.89-1.26,1.55-18.96,19.96-23.91,26.09Z"/><path class="b" d="M592.79,171.49c3.38,7.68,7.48,17.58,12.44,24.37,4.03,5.51,9.42,11.65,16.46,13.04,6.49,1.27,11.41-2.04,13.54-7.79,2.59-7,2.19-22.74,2.11-30.13-.08-6.75-.62-13.54-1.71-20.21-.52-3.17-3.7-13.83-5.87-17.36-1.98-3.22-4.65-6.61-8.52-5.98-4.51,.73-7.96,4.14-8.37,8.87-.36,4.07,.08,7,3.23,9.6,3.17,2.62,7.55,3.64,11.56,3.29,8.51-.73,18.26-7.38,21.17-15.47,.47-1.31,.51-3.18,.71-5.23,.18-1.85-.92-6.52-1.74-4.72-1.64,3.63,.39,4.14-4.67,11.83-3.92,5.95-17.14,7.55-17.54,7.54-.54,0-.38-.04-.58-.06-.39-.05-.78-.11-1.16-.19-.25-.05-1.38-.4-.68-.15-.72-.26-1.41-.58-2.06-.97,.62,.37-.09-.09-.29-.26-.13-.11-.16-.04-.4-.36-.41-.54-3.91-2.26-1.49-8.04,.15-.35-.09,.14-.11,.17,.11-.14,.24-.29,.35-.43,.33-.46,.11-.13-.03,0,.15-.13,.32-.26,.48-.37s.35-.24,.54-.34c-.47,.27,.04,0,.13-.04,.3-.13,1.84-.5,.94-.38,.33-.05,.66-.06,.99-.1-.71,.09-.18,.06,.22,.07,.22,0,.56,.28-.21-.09,.02,0,.31,.13,.31,.13,.02-.02,.34,.18,.4,.2,.33,.13-.49-.47-.08-.05,.21,.21,.47,.41,.7,.61-.64-.57,.03,.05,.2,.28,.21,.28,.39,.57,.58,.86,.1,.15,.18,.31,.27,.46-.42-.71,.04,.08,.09,.2,.68,1.47,1.2,3.01,1.64,4.57,.11,.41,.22,.82,.32,1.24,.04,.15,.54,2.44,.7,3.32,.52,2.75,1.02,5.5,1.46,8.26,.98,6.1,1.5,12.29,1.64,18.46,.04,1.74,.04,3.48,0,5.22,0,.42-.02,.84-.04,1.26,0,.21-.02,.42-.02,.62,0-.14,.04-.67,0,.01-.05,.87-.1,1.74-.18,2.6-.26,3.04-.68,6.08-1.5,9.02-.09,.32-.19,.65-.29,.97,.27-.87-.04,.08-.12,.3-.24,.65-.51,1.28-.81,1.9-.13,.26-.26,.52-.4,.77-.08,.14-.5,.8-.2,.34,.33-.5-.21,.28-.28,.37-.18,.23-.37,.45-.56,.67-.31,.36-.55,.46-.02,.06-.19,.15-.37,.31-.57,.46s-.42,.25-.6,.39c-.4,.31,.25-.14,.32-.17-.17,.05-.32,.15-.49,.21s-.45,.1-.6,.19c.11-.07,.77-.08,0-.02-.25,.02-.51,.03-.76,.06-.67,.09,.71,.12-.18,0-.57-.08-1.12-.22-1.68-.33-.42-.08,.58,.24-.2-.07-.32-.13-.63-.25-.94-.4-.58-.27-1.12-.59-1.67-.9-.41-.24,.51,.35,.12,.08-.14-.1-.28-.19-.42-.28-.32-.22-.63-.45-.93-.69-1.2-.93-2.31-1.98-3.37-3.07-.56-.58,.14,.17-.41-.44-.27-.3-.53-.61-.79-.91-.57-.67-1.13-1.36-1.67-2.06-4.68-6.08-8.03-12.35-11.11-19-2.74-5.9-10.9-25.26-12.39-24.46-3.43,1.84,2.45,22.68,5.08,28.64Z"/><path class="b" d="M295.27,172.75c.72,2.43,1.32,4.89,1.84,7.37,.56,2.66,1.03,5.34,1.44,8.03,.45,2.94,.72,5.08,1.07,8.29,1.26,11.49,1.82,23.04,2.56,34.57,.31,4.83,.64,9.67,1.19,14.49,.41,3.58,.83,11.86,1.92,15.32,.83,2.61,2.08,5.16,4.66,6.4,2.82,1.36,5.9,.81,7.56-2,1.44-2.44,1.5-10.32,1.67-13.06,.27-4.35,.32-8.71,.49-13.06,.55-13.9,2.01-27.72,4.88-41.35,1.48-7.05,2.86-14.03,6.79-19.97,.54-.81-.44,.46,.18-.24,.18-.21,.36-.42,.54-.63,.35-.38,.74-.7,1.1-1.07,.54-.56-.61,.34,.04-.03,.19-.11,.36-.24,.55-.35s.37-.19,.55-.29c.54-.33-.72,.46,.09,0,.16-.09,.37-.07,.54-.13-.76,.29-.63,.05-.21,.05,.1,0,.27,.02,.35,0,.55-.14-.74-.27-.23-.04,.11,.05,.39,.13,.5,.13,.56,.02-.61-.44-.17-.08,.12,.1,.33,.2,.47,.27,.76,.38-.27-.35,.06,.04,.17,.2,1.05,1.24,.44,.39,.27,.38,.53,.77,.76,1.18,.12,.22,.22,.46,.35,.67,.42,.73-.17-.47,.03,.03,.23,.59,.43,1.18,.6,1.79s.32,1.25,.44,1.88c.06,.34,.12,.68,.17,1.02-.07-.49,0,0,.01,.08,.09,.69,.15,1.38,.22,2.07,.33,3.56,.53,7.13,.73,10.7,.56,9.94-.13,19.89,.59,29.82,.69,9.47,1.4,22.55,3.43,31.84,1.21,5.5,4.57,15.7,11.81,14.21,6.61-1.36,7.83-15.31,8.27-20.83,.66-8.24-.09-16.59-.55-24.83-.24-4.34-.47-8.68-.5-13.03-.01-1.91,.01-3.83,.11-5.74,.05-.87,.11-1.75,.2-2.62,.04-.41,.09-.82,.14-1.23-.13,1.21,.06-.34,.11-.64,.24-1.38,.6-2.7,1.05-4.02,.27-.77-.42,.75,.07-.14,.13-.23,.24-.46,.37-.69,.12-.21,.3-.41,.41-.62,.25-.48-.63,.62-.22,.29,.12-.1,.22-.26,.34-.37,.09-.09,.19-.16,.27-.25,.4-.45-.01,.39-.32,.24,.02,.01,.55-.34,.61-.38,.55-.39-.92,.22-.05,.02,.06-.01,.71-.14,.72-.17-.11,.34-1.03,.05-.44,.07,.11,0,.22-.02,.33-.02,.21,0,.44,.03,.65,.01,.68-.04-1.01-.27-.18-.02,.23,.07,.47,.14,.71,.19,.83,.19-.71-.42-.14-.07,.15,.09,.32,.16,.47,.25,.19,.11,.36,.25,.55,.35,.53,.3-.73-.67,.01,.02,.35,.33,.7,.66,1.02,1.03,.08,.1,.16,.2,.24,.29,.4,.44-.03-.22-.22-.29,.16,.06,.38,.52,.47,.65,.7,1.02,1.29,2.12,1.83,3.24,.13,.27,.25,.54,.38,.82s.54,1.32,.09,.19c.28,.72,.57,1.43,.84,2.15,2.4,6.55,3.91,13.43,5.5,20.21,1.79,7.58,3.54,15.18,5.96,22.59,3.9,11.89,11.01,27.79,25.95,27.12,3.81-.17,7.38-1.33,10.83-2.91,1.69-.77,5.92-4.59,5.05-6.08-1.02-1.74-3.52,.75-9.59,1.92-6.85,1.32-11.26-.54-11.57-.64-.79-.26,.73,.38-.23-.1-.59-.29-1.17-.59-1.72-.95-.28-.18-.55-.37-.83-.55-.14-.09-.27-.2-.4-.3,.89,.61,.36,.29,.17,.12-.52-.45-1.04-.89-1.52-1.38s-.98-1.03-1.44-1.57c-.18-.21-.96-1.25-.26-.3-.22-.3-.45-.6-.66-.9-1.92-2.71-3.4-5.69-4.73-8.73,.44,1-.14-.35-.24-.59-.14-.34-.27-.69-.41-1.03-.35-.91-.69-1.83-1.02-2.76-.62-1.76-1.19-3.54-1.73-5.33-1.11-3.7-2.09-7.45-3.01-11.21-1.79-7.29-3.34-14.64-5.38-21.87-1.6-5.66-3.42-16.36-7.25-20.96-3.41-4.1-9.52-5.66-13.81-1.88-2.18,1.92-3.3,7.17-3.91,9.94-.78,3.55-.99,9.54-1.04,13.17-.12,8.63,.66,17.25,1.05,25.87,.18,4,.3,8.02,.14,12.02-.03,.81-.08,1.62-.14,2.42-.03,.42-.07,.84-.12,1.25-.02,.2-.05,.4-.07,.61-.11,.97,.1-.54,0,.07-.23,1.39-.48,2.78-.94,4.12-.05,.15-.11,.29-.16,.44-.21,.65-.08-.24,.12-.26-.06,0-.32,.69-.37,.78-.13,.24-.28,.46-.41,.7-.44,.77,.5-.45,0,.01-.17,.16-.35,.34-.51,.52-.45,.51,.83-.44,.04-.05-.1,.05-.21,.11-.3,.17-.45,.32-.04-.37,.4-.15-.07-.03-.57,.18-.67,.21-.87,.29,.78,.05,.06,0-.24-.02-.56-.04-.79,0-.47,.05,1.11,.28,.32,0,1.23,.42,.58,.28,.23,.03,1.06,.77,.52,.4,.27,.17-.61-.59,.14,.27,.06,.13-.26-.48-.59-.92-.83-1.42-.06-.13-.11-.27-.18-.39-.3-.53,.31,.85,.11,.26-.09-.25-.2-.5-.29-.76-.27-.74-.5-1.49-.71-2.24-.47-1.68-.83-3.38-1.15-5.09-.38-2.03-.69-4.07-.98-6.11,.12,.9-.1-.76-.13-1.02-.07-.57-.14-1.14-.21-1.71-.14-1.18-.27-2.36-.39-3.54-1.06-10.24-1.63-20.53-2.18-30.82-.42-7.8-.61-15.66-1.5-23.42-.55-4.77-1.78-14.79-5.99-17.7-3.86-2.67-8.55-1.2-11.69,1.84-4.79,4.63-6.86,16.28-8.37,22.55-1.96,8.16-3.45,16.42-4.55,24.74-1.51,11.5-1.93,23.03-2.37,34.6-.06,1.71-.63,5.31-.81,4.63-.42-1.56-.72-3.15-.97-4.74-.07-.42-.13-.84-.19-1.26-.03-.22-.11-.81,0,.08-.03-.24-.06-.49-.09-.73-.14-1.12-.26-2.25-.38-3.38-2.23-22.1-.1-45.01-6.56-66.38-2.91-9.65-8.9-14.89-10.37-14.03-1.76,1.03,1.81,8.55,2.17,9.78Z"/><path class="b" d="M223.11,169.58c-16.39,23.31-15.88,31.45-21.7,53.97-2.24,8.69-2.01,17.05-2.12,26.05-.04,3.05,1.34,16.16,7.7,17.07,3.69,.53,5.98-2.56,7.5-5.73,2.43-5.08,8.74-33.12,10.61-38.02,1.31-3.41,2.64-6.81,3.99-10.21,1.42-3.55,2.72-7.18,4.38-10.54,.68-1.37,1.42-2.7,2.25-3.98,.33-.51,.68-1.02,1.05-1.51,.68-.92-.39,.45,.32-.41,.28-.34,.57-.67,.86-1,.41-.45,.85-.87,1.3-1.28,.11-.1,.85-.63,.17-.16,.14-.1,.28-.21,.43-.3,.31-.19,1.59-.67,.65-.42,.19-.05,.44-.11,.61-.19,.46-.21-.78-.07,.08,0,.57,.05-.31-.06-.34-.07,.04,.01,.54,.17,.55,.16,.03-.02-.88-.28-.13,.02-.75-.29-.24-.33-.05,.02,.39,.69-.33-.71,.06,.05,.12,.24,.29,.46,.41,.7,.09,.17,.18,.35,.25,.53-.28-.66,.18,.62,.22,.74,.59,2,.77,4.04,.82,6.11,.24,9.59-2.74,16.91-3.7,26.43-.52,5.16-1.36,13.95-1.65,19.13-.23,4.11,.35,10.46,.83,14.56,.38,3.26,1.05,7.19,4.04,9.13,2.06,1.34,4.68,1.48,6.79,.17,1.89-1.17,4.29-6.66,5.17-8.64,1.17-2.61,1.98-5.34,2.67-8.12,3.61-14.66,4.8-29.81,8.23-44.51,.77-3.3,1.64-6.59,2.79-9.78,.23-.65,.5-1.28,.74-1.92s-.36,.78-.07,.16c.07-.16,.14-.32,.21-.48,.14-.31,.29-.62,.44-.93,.55-1.12,1.2-2.14,1.88-3.18,.44-.67-.56,.61-.03,.04,.18-.19,.34-.4,.52-.59s.35-.36,.54-.53c.09-.08,.19-.16,.27-.24,.39-.38,.03,.27-.32,.25,.16,0,1-.58,1.16-.69,.2-.15-.98,.28-.22,.11,.22-.05,.53-.1,.73-.19,.45-.2-.98,0-.49,.06,.1,.01,.22-.03,.33-.02,.18,0,.38,.01,.55,0,.9-.03-.8-.23-.12-.02,.25,.08,.51,.12,.77,.2,.1,.03,.2,.08,.3,.1,.63,.17-.32-.15-.33-.15,.14-.04,.58,.28,.71,.35,.19,.1,.69,.54,.16,.06-.57-.52,.06,.09,.2,.22,.08,.07,.14,.17,.22,.24,.38,.34-.29,.16-.26-.35,0,.09,.27,.38,.33,.48,.13,.21,.25,.42,.37,.64,.06,.11,.11,.23,.17,.35,.28,.54,.32,.14-.08-.2,.29,.25,.42,1.17,.53,1.52,.19,.63,.34,1.26,.48,1.9,.15,.71,.27,1.42,.38,2.13,.02,.13,.03,.25,.06,.38,.12,.71-.1-.87-.02-.14,.05,.47,.11,.94,.16,1.4,.18,1.69,.29,3.38,.37,5.07,.43,8.69,.2,17.4,.32,26.09,.13,9.51,.54,19.07,2.19,28.46,1.44,8.17,4.19,18.27,9.56,24.76,2.31,2.79,6.08,7.13,10.86,7.13,4.78,0,10.47-4.44,9.26-6.92-.75-1.53-7.04,.25-8.83-.28-5.52-1.63-10.4-12.97-10.76-13.8,4.86,10.53-.18-.46-.26-.69-.2-.52-.39-1.03-.57-1.56-1.4-4.03-2.3-8.23-2.95-12.44-.07-.47-.14-.95-.21-1.42-.14-.96,.09,.74-.03-.23-.04-.29-.07-.58-.11-.87-.14-1.17-.27-2.34-.38-3.51-.23-2.38-.4-4.77-.53-7.17-.49-9.11-.38-18.24-.44-27.36-.05-7.16,.37-9.85-.47-20.55-.2-2.52-1.57-9.65-3.41-11.46s-4.56-2.8-7.08-2.72c-5.51,.18-10.06,8.67-12.05,13.24-2.83,6.48-4.35,13.47-5.68,20.38-1.48,7.69-2.64,15.45-3.94,23.17-1.08,6.39-2.09,12.93-4.19,19.08-.18,.53-.38,1.05-.58,1.58-.37,.96,.31-.62-.04,.09-.12,.24-.22,.48-.34,.72-.21,.41-1.28,.36-1.41-.24-.08-.37-.14-.75-.21-1.12-.04-.23-.1-.96,0,.11-.02-.21-.05-.42-.07-.63-.44-4.17-.25-8.41,0-12.58,.63-10.45,2.01-20.83,2.88-31.26,.35-4.24,1.82-9.65,1.68-13.9-.15-4.74,.73-13.27-6.44-15.01-5.45-1.32-9.94,3.61-12.8,7.24-4.6,5.86-6.98,13.02-9.7,19.86-3.86,9.73-6.33,19.55-9.88,29.4-.44,1.23-2.04,7.05-2.5,8.28-.18,.46-.84,4.28-1.04,4.5-.59,.67-.91-2-1.01-2.51-.06-.31-.39-5.49-.38-7.06,0-1.79,.1-8.18,.24-9.96,.08-.95,.17-1.89,.27-2.83,.06-.54,.13-1.07,.19-1.61,.02-.15,.15-1.07,.02-.18,.04-.28,.08-.56,.12-.83,1.47-10.16,4.18-20.17,7.75-29.79,3.91-10.51,9.28-21.16,16.1-30.6,3.06-4.24,6.8-8.53,10.81-12.4,3.44-3.32-6.4-.54-10.02,2.97l-9.66,10.41Z"/></svg>